<svg xmlns="http://www.w3.org/2000/svg" version="1.1" xmlns:xlink="http://www.w3.org/1999/xlink" width="512" height="512" x="0" y="0" viewBox="0 0 463.673 463.673" style="enable-background:new 0 0 512 512" xml:space="preserve" class=""><g><path d="M455.384 358.536c-1.757-.122-3.518-.197-5.275-.314a1387.623 1387.623 0 0 0 9.913-238.114c-1.955-22.876.116-46.576-4.864-68.934-6.036-18.265-24.172-22.191-41.176-23.764a1833.241 1833.241 0 0 0-319.54-3.292c-9.103.555-99.744 8.12-86.022 18.644a4.32 4.32 0 0 0-2.47 3.5A1240 1240 0 0 0 .536 204.056c2.106 47.937 1.28 96.943 10.188 144.083 16.718 44.577 75.076 24.425 111.173 24.136 24.329-1.445 48.682-2.885 73.047-3.908.928 12.934.754 25.044 2.002 37.82-12.387-8.326-29.179-5.035-37.505 7.352a27.055 27.055 0 0 0-1.765 3.034 17.277 17.277 0 0 0 3.315 19.036 30.041 30.041 0 0 0 19.092 6.955 328.342 328.342 0 0 0 60.318 1.775c13.061-1.255 34.304-1.512 42.565-13.917 9.498-15.764-6.864-33.639-23.168-34.117a116.37 116.37 0 0 0-2.004-29.136c65.956.424 131.797 4.036 197.588 8.615 11.068.81 11.041-16.482.002-17.248zM217.398 436.48c-6.747-.274-13.483-.839-20.216-1.432a56.758 56.758 0 0 1 5.434-4.773l-1.106.855a11.204 11.204 0 0 0 3.709-3.82 25.285 25.285 0 0 0 14.183 7.229c-.718.571-1.348 1.302-2.004 1.941zm-44.096-22.015a41.322 41.322 0 0 1 15.589-4.224c-5.964 6.579-12.932 12.173-18.811 18.795-5.064-4.594-1.974-11.357 3.222-14.571zm2.777 17.746a76.986 76.986 0 0 0 20.028-19.331c.728-1.385 1.674-3.366.554-4.748.198-.194.345-.435.427-.7a44.64 44.64 0 0 0 3.042 12.117 24.088 24.088 0 0 0-13.411 14.641 51.738 51.738 0 0 1-10.64-1.979zm47.517 4.548a7.161 7.161 0 0 0 .902-1.8c4.068.001 8.101-.76 11.888-2.245a23.397 23.397 0 0 0-1.942 4.407 397.303 397.303 0 0 1-10.848-.362zm43.784-23.527a46.584 46.584 0 0 0-11.529 22.743c-4.431.637-8.896 1.01-13.372 1.115a253.166 253.166 0 0 0 20.956-26.218c1.903.274 3.787.665 5.641 1.171-.597.349-1.164.747-1.696 1.189zm-.7 20.43c-.834.248-1.685.415-2.526.631 2.944-6.718 10.148-11.014 12.418-17.883 7.817 7.866-2.565 15.309-9.892 17.252zm-17.841-35.763c-1.438 15.264-16.747 32.097-32.631 23.223-7.78-4.618-7.247-15.22-7.597-23.093-.502-10.034-1.392-20.049-2.097-30.071 13.284-.474 26.57-.752 39.86-.835a81.252 81.252 0 0 1 2.465 30.776zm-89.249-41.863c-24.48.748-48.946 2.374-73.371 4.168-17.756 1.305-47.527 8.278-59.356-9.62-9.558-18.209-6.982-43.442-9.971-63.736-8.374-80.874-2.122-163.654-3.912-243.801 47.283-1.504 94.303-9.722 141.733-10.443a2076.451 2076.451 0 0 1 251.494 7.272c28.153.916 42.037 5.821 39.612 37.291-1.87 93.263-1.409 187.868-15.592 279.874-90.073-5.023-180.513-3.756-270.637-1.005z" fill="#7a0303" opacity="1" data-original="#000000" class=""></path><path d="M423.06 90.099c-1.18-25.776-6.365-42.953-35.859-42.938-20.963-.423-42.108.311-63.075.805-44.288 1.043-88.545 3.14-132.764 5.792-48.959 2.936-99.031 2.815-147.315 11.592a3.085 3.085 0 0 0-1.048 5.485c-2.008 40.988 3.574 82.36 4.403 123.426 2.609 41.454 2.608 83.192 6.228 124.536 1.922 16.559 13.279 16.308 27.515 16.302 109.913-1.654 219.769 2.214 329.67.223a5.93 5.93 0 0 0 3.252-10.722 7.512 7.512 0 0 0 6.03-6.827c6.841-75.586 10.634-152.012 2.963-227.674zM292.933 324.037c-72.582 2.311-145.228 2.549-217.782 2.439-4.19-.459-7.905 1.87-10.458-4.899-.409-40.891-3.991-82.359-6.228-123.363-3.304-42.083-2.26-84.777-8.153-126.561 39.161.531 78.216-5.179 117.288-7.833 71.245-4.745 142.632-8.62 214.043-8.78a36.98 36.98 0 0 1 25.106 6.717c7.217 7.008 5.792 19.223 5.963 28.342.194 10.383.458 20.758.716 31.14a1348.647 1348.647 0 0 1-8.332 196.533 5.704 5.704 0 0 0 2.378 5.73c-38.175-.387-76.371-.037-114.541.535z" fill="#7a0303" opacity="1" data-original="#000000" class=""></path><path d="M97.179 176.993c23.786 2.772 48.119-.977 72.087-1.215 8.25-.057 16.493-.534 24.694-1.43a4.82 4.82 0 0 0 4.118-3.334c6.892-.916 13.818-1.577 20.766-1.849a4.206 4.206 0 0 0 4.125-4.125c-.057-4.343-4.853-4.261-8.054-4.389.045-4.777.099-9.551.223-14.328.13-4.983 1.225-11.648-2.952-15.352-4.912-7.568-14.068-1.994-20.475.039-4.222-1.827-9.252 4.575-5.63 7.979a70.53 70.53 0 0 0 1.595 22.252c-1.431.358-2.88.637-4.341.836-.308-14.838.543-29.799-.373-44.591a10.702 10.702 0 0 0-3.666-7.856c-8.713-4.361-21.618.298-31.123 1.086-1.14.203-.696 1.719.249 1.843a184.455 184.455 0 0 0 19.777 1.723c1.804.042 5.883-.591 6.935 1.273.792 15.405-.908 31.465-.591 47.076-7.039.526-14.044.775-21.083 1.161 1.387-16.153-3.211-32.109-4.814-48.093a4.68 4.68 0 0 0-2.183-4.575c-.553-.599-2.096 1.359-2.271 1.892a292.984 292.984 0 0 0-.708 51.29c-1.062.055-2.124.13-3.186.188-2.47-13.864 3.524-36.999-17.747-35.604a24.365 24.365 0 0 0-18.41 5.638 10.665 10.665 0 0 0-2.371 7.325c-.848 8.454-.69 16.979.471 25.396a40.571 40.571 0 0 0-5.063 1.247 4.445 4.445 0 0 0 .001 8.497zm94.65-45.973-.066.007zm3.597 17.221-.491-7.51c3.959-.672 7.466-3.173 11.579-2.586.16 7.52-.034 14.814-.205 22.1-3.773-.102-7.459.005-11.247.25a31.065 31.065 0 0 0 .364-12.254zm-80.154 10.367a78.975 78.975 0 0 0-3.129-23.675 18.933 18.933 0 0 1 15.601-.983 6.39 6.39 0 0 1 4.847 4.566c.999 8.672.046 17.641.303 26.415-5.965.331-11.891.732-17.866 1.019a49.19 49.19 0 0 0 .244-7.342z" fill="#7a0303" opacity="1" data-original="#000000" class=""></path><path d="M402.659 194.824a17090.035 17090.035 0 0 0-158.337 5.651c.175-30.252 1.023-60.511.374-90.76-.004-3.717.423-32.454-6.753-24.38a71.773 71.773 0 0 0-3.211 24.38c-1.458 30.378-1.361 60.808-1.983 91.21-51.02 2.022-102.19 3.853-152.906 9.826a3.846 3.846 0 0 0 0 7.687c50.858 1.887 101.844-.411 152.689-2.499-.368 25.427-.671 50.851-.711 76.286a5.535 5.535 0 0 0 11.063 0c.622-25.592.979-51.18 1.27-76.771 52.85-2.141 105.686-4.517 158.507-7.13 8.628-.429 8.725-13.771-.002-13.5z" fill="#7a0303" opacity="1" data-original="#000000" class=""></path><path d="M286.827 177.849c39.568 16.848 100.878-23.743 81.77-68.863-11.52-24.594-44.571-31.036-67.381-18.989a5.24 5.24 0 0 0-3.164 5.965c-36.787 9.68-47.099 64.166-11.225 81.887zm66.228-66.491a23.716 23.716 0 0 1 3.213 5.858 34.81 34.81 0 0 0-6.058 1.442c-1.207-6.729-7.468-11.422-11.206-16.906a27.662 27.662 0 0 1 14.051 9.606zm-20.716-11.123a122.235 122.235 0 0 0 13.126 19.721l-8.324 2.276a92.244 92.244 0 0 0-17.802-13.085 1.965 1.965 0 0 0-2.573.388c-.086-3.086-.154-6.16-.244-9.25a65.85 65.85 0 0 1 15.817-.05zm-15.327 25.234c.096-4.19-.05-8.367-.156-12.556 4.242 3.875 8.137 8.195 12.739 11.644a77.309 77.309 0 0 1-12.589 4.043c-.003-1.064-.018-2.12.006-3.131zm-16.246-25.158a6.82 6.82 0 0 0 6.031 1.408c-.188 7.009-.776 16.324-.73 23.274-.232 4.817-.559 14.505 6.612 13.333 14.564-5.508 30.481-6.289 45.299-11.211-1.682 27.985-34.969 44.461-60.319 41.172-13.924-3.764-23.264-16.821-22.328-31.214.402-16.231 12.714-28.056 25.435-36.762zM111.402 285.498c-.039-.008.08.084.397.286a3.169 3.169 0 0 0-.397-.286zM157.354 248.071l-.01.003c-.384.086-.225.153.01-.003z" fill="#7a0303" opacity="1" data-original="#000000" class=""></path><path d="M222.034 252.539a3.556 3.556 0 0 0-4.482-3.414c-6.992 3.515-9.626 11.881-13.986 17.954a7.68 7.68 0 0 0-3.616 1.517 9.078 9.078 0 0 0-9.542 4.738 106.174 106.174 0 0 1-18.332-17.174 13.555 13.555 0 0 0-.947-15.294c-3.399-3.985-9.385-4.459-13.37-1.06a9.465 9.465 0 0 0-1.343 1.408c-5.59-.655-10.653 3.345-11.308 8.935-.047.402-.07.806-.069 1.211a82.424 82.424 0 0 0-13.774 11.654 81.499 81.499 0 0 0-14.718 15.285 6.687 6.687 0 0 0-6.988.8 4.077 4.077 0 0 0-1.545-.646l.951.401a4.617 4.617 0 0 0-4.594.012c-6.568 4.264-8.436 13.045-4.172 19.613a14.152 14.152 0 0 0 1.722 2.159c5.768 4.981 14.483 4.344 19.464-1.425a13.8 13.8 0 0 0 1.671-15.628 288.013 288.013 0 0 0 27.129-22 13.827 13.827 0 0 0 16.306.342 49.51 49.51 0 0 0 20.862 20.981c.682 8.242 7.916 14.37 16.158 13.688a14.98 14.98 0 0 0 6.833-2.308c7.123-4.41 9.322-13.76 4.911-20.883a15.16 15.16 0 0 0-4.71-4.784c4.052-5.002 10.532-9.315 11.489-16.082zm-109.978 33.408c10.841 10.097-11.171 10.77-2.39.337l-.731.565a5.028 5.028 0 0 0 1.72-1.871c.453.37.917.59 1.401.969zm-3.321 1.057c.081-.062.142-.137.222-.197a1.042 1.042 0 0 1-.222.197zm53.691-34.466c-4.671 5.973-13.634-.931-4.923-4.56.831-.145 2.035.209 2.758-.718a4.142 4.142 0 0 1 3.023.968 4.532 4.532 0 0 1-.858 4.31zM198.615 280a5.045 5.045 0 0 1 1.955-3.471c-.006.013-.24.185-.422.319.268-.231.517-.483.745-.752 1.019.945 2.323 2.007 3.451 2.913l-1.016-.785c7.615 5.739-6.36 10.676-4.713 1.776zM374.424 277.213c-3.657 6.157-9.172 2.347-11.453-2.551 3.034-.09 6.073-.133 9.086-.411a6.004 6.004 0 0 0 0-12c-3.581-.252-7.184-.259-10.788-.252 2.907-40.569-36.191-36.473-34.28 1.647-5.419.369-10.802.548-16.217.688-1.559-20.84-27.891-17.126-31.73.675-20.644-.49-23.933 8.764-1.174 8.535a39.192 39.192 0 0 0 1.863 12.03 3.957 3.957 0 0 0 7.733-1.047c.095-3.231-.341-7.204-.337-11.119 5.214-.121 10.375.032 15.581.04-2.449 25.315 28.32 21.858 31.865.675 5.832.274 11.668.492 17.5.613a19.425 19.425 0 0 0 15.661 16.523c7.148 1.372 14.055-3.31 15.427-10.458.075-.389.132-.78.171-1.174a4.819 4.819 0 0 0-8.908-2.414zm-36.704-29.025c1.249-3.667 4.797-8.957 9.304-6.773 6.561 4.366 4.988 14.021 4.688 20.803a627.34 627.34 0 0 0-15.849.895 51.073 51.073 0 0 1 1.857-14.925zm-49.296 16.756c1.922-7.263 14.593-10.121 14.805-.387-4.94.118-9.862.356-14.805.387zm26.949 18.548c-4.912-.46-5.418-5.21-5.11-9.986 5.206.026 10.386.066 15.598.304-1.332 5.353-4.246 10.266-10.488 9.682z" fill="#7a0303" opacity="1" data-original="#000000" class=""></path></g></svg>