<svg xmlns="http://www.w3.org/2000/svg" version="1.1" xmlns:xlink="http://www.w3.org/1999/xlink" width="512" height="512" x="0" y="0" viewBox="0 0 468.843 468.843" style="enable-background:new 0 0 512 512" xml:space="preserve" class=""><g><path d="M1.264 412.794c-3.096 33.885 16.94 46.653 48.405 46.065 25.393-.191 50.828-1.856 76.196-2.919l152.723-6.401c58.183-2.439 116.385-4.609 174.54-7.646a4.084 4.084 0 0 0 3.45-2.108c.021 1.584.059 3.17.078 4.754a6.098 6.098 0 0 0 12.187 0c-1.08-52.936-1.468-105.91-2.775-158.836-1.082-38.389-2.94-76.763-4.009-115.156.264-16.471-.087-39.171-17.832-46.197a258.412 258.412 0 0 0 18.744-89.16c.289-5.535 3.186-18.407-.796-22.992-3.228-3.717-11.387-1.795-15.366-1.265a127.222 127.222 0 0 0-23.603 6.581 264.417 264.417 0 0 0-107.054 68.749c-17.544-15.37-48.734-13.904-67.798-3.449a88.837 88.837 0 0 0-38.165 46.564 25991.059 25991.059 0 0 0-115.076 5.253c-28.486 2.123-57.527.788-85.62 6.246a4.322 4.322 0 0 0-8.019 2.071c-4.614 89.873 3.41 179.977-.21 269.846zm451.864 20.475c-120.361 4.103-240.654 10.402-360.98 15.426-30.349-.775-85.68 16.248-82.892-31.932-2.487-76.837 1.824-153.548 1.389-230.396 88.569 1.848 177.46-6.516 266.065-8.449.366.286.736.567 1.102.854-9.053 1.47-15.201 10-13.731 19.053.061.376.135.75.222 1.121 2.231 11.698 12.572 18.656 21.856 24.69 11.059 7.472 25.423 14.56 38.661 8.433-.662 2.979 2.434 6.535 5.696 4.414 2.258-1.468 4.532-2.953 6.801-4.431a3.13 3.13 0 0 0 4.485-2.922c9.66-6.322 19.306-12.826 28.725-19.635 15.142 14.991 8.265 45.489-.954 62.27-1.719 3.032-4.55 6.371-4.167 10.051a3.788 3.788 0 0 0 4.698 3.579c4.095-.745 6.509-5.06 8.514-8.343 11.938-20.329 20.396-56.008.54-73.948a266.947 266.947 0 0 0 32.66-29.051c-.163.807-.665 1.44-.415 2.418a119.287 119.287 0 0 1 7.899 30.196c1.91 37.355-28.86 62.398-52.066 86.835-2.63 3.31.701 9.001 4.887 6.333a152.372 152.372 0 0 0 51.106-60.457c7.49-18.696 11.031-52.016-8.463-64.781 13.266-.479 26.532-.947 39.796-1.404-.53 87.252-.192 174.477 1.936 261.721a3.708 3.708 0 0 0-3.37-1.645zM312.297 213.925c-.408-1.671-5.033.043-6.142.001-3.042.552-8.466 2.574-11.487 3.463a120.768 120.768 0 0 1-12.188-8.179 63.217 63.217 0 0 0 23.127-4.175 2.177 2.177 0 0 0 1.345-2.27 197.633 197.633 0 0 1 17.687 17.842c-7.214 6.552-17.842 3.873-25.568-.622a62.76 62.76 0 0 0 12.689-4.421 1.303 1.303 0 0 0 .537-1.639zm-7.213-12.757a70.259 70.259 0 0 0-25.27 5.717 20.376 20.376 0 0 1-4.677-6.317c24.439-3.739 21.207-14.906-1.311-4.676a9.668 9.668 0 0 1 7.311-10.97 2.804 2.804 0 0 0 1.92-2.088 206.108 206.108 0 0 1 22.027 18.334zm137.197-69.332c11.526 6.25 12.025 20.382 12.221 31.972-11.514.373-23.029.724-34.547 1.053a161.132 161.132 0 0 0 21.236-33.514c.367.154.738.299 1.09.489zM249.625 92.153a59.97 59.97 0 0 1 61.396-.194 315.564 315.564 0 0 0-25.041 32.113c-26.104-8.141-55.416 3.94-74.582 21.96 8.172-20.936 18.909-41.718 38.227-53.879zM79.134 145.527c42.474-2.012 84.942-4.149 127.405-6.411-2.067 6.165-3.804 12.416-5.28 18.628a15.816 15.816 0 0 0-3.362 7.808 3.966 3.966 0 0 0 5.925 3.4 38.806 38.806 0 0 0 7.752-9.124 83.733 83.733 0 0 1 70.225-29.326c-2.88 3.397-19.606 36.592-8.976 31.881 15.539-21.943 27.056-47.116 46.407-66.487 1.926 1.235 4.725-1.101 2.843-3.03a269.178 269.178 0 0 1 79.4-58.538 370.358 370.358 0 0 1 44.787-16.561c2.541-.847 7.152-4.226 9.716-3.689 6.921 1.448 3.11 13.031 2.492 17.023-8.962 73.106-23.484 124.996-87.019 169.004a4.276 4.276 0 0 0-3.933 2.823c-9.259 6.605-18.785 12.871-28.423 18.935a235.12 235.12 0 0 0-52.97-48.596c-2.335-1.408-17.109-11.66-18.972-6.351a4.524 4.524 0 0 0 1.392 4.216c-50.056 1.738-100.125 1.588-150.178 3.702-35.801 2.343-72.242-.331-107.727 4.928.002-10.985-.114-21.967-.449-32.941 22.522 2.969 46.403-.21 68.945-1.294z" fill="#7a0303" opacity="1" data-original="#000000" class=""></path><path d="M36.18 168.232c4.325.542 30.327 1.143 25.426-7.049a9.422 9.422 0 0 0-6.984-1.562 80.329 80.329 0 0 0-19.09 3.824 2.45 2.45 0 0 0 .648 4.787zM84.789 161.442c7.129 1.225 19.152 3.186 24.396-2.721a2.264 2.264 0 0 0-.808-3.08c-3.867-2.274-8.234.545-12.312.845-3.846.447-7.462 1.944-11.276 2.605a1.227 1.227 0 0 0 0 2.351zM131.148 159.455a100.634 100.634 0 0 0 18.664 2.28c5.014 1.148 9.726-4.29 5.781-8.53a23.633 23.633 0 0 0-25.251.08 3.418 3.418 0 0 0 .806 6.17zM374.996 128.751c31.502 13.92 61.032-21.378 50.566-51.44-1.604-3.987-8.297-3.944-8.102 1.097a47.489 47.489 0 0 1-5.857 33.824c-8.918 13.864-30.163 20.384-42.315 6.93-11.283-12.588-3.682-32.501 9.867-40.065 9.957-7.296 27.133-6.752 31.898 6.273.908 2.745 5.632 2.491 5.34-.723-1.454-16.045-18.662-21.5-32.354-17.415-29.448 8.947-40.644 46.774-9.043 61.519zM286.266 238.185a30.486 30.486 0 0 0-17.951-7.598 15.971 15.971 0 0 0-2.169-1.765c.76-.539.994-1.563.542-2.378-8.062-12.01-26.442-10.987-38.305-5.888-31.232 15.527-48.393 51.185-55.798 83.865a98.183 98.183 0 0 0 .812 51.417 4.994 4.994 0 0 0 9.76-1.321c.056-2.097.003-4.165-.013-6.243 4.047 3.089 9.691 1.756 14.487 1.504 34.071-1.634 72.295-9.453 93.322-38.871 15.979-21.3 17.076-54.832-4.687-72.722zm-26.398-2.056c8.837 11.729 11.401 30.365-2.763 39.083-7.298 4.83-17.13 2.83-21.961-4.469a15.848 15.848 0 0 1 .386-18.05c4.125-8.214 13.931-20.01 24.338-16.564zm16.065 73.595c-17.674 18.996-43.68 26.468-68.735 29.376-7.876 1.689-17.151-.236-24.073 4.165a140.263 140.263 0 0 1 13.607-74.5c11.315-22.927 34.303-53.501 63.27-41.277-1.868.687-1.964 2.566-1.551 4.22-20.945-5.972-44.138 26.815-31.315 44.894 23.65 29.78 62.064-3.218 48.542-34.437 20.938 17.112 18.542 49.414.255 67.559zM208.57 388.369c-25.214-11.943-55.327-5.036-72.816 16.701a33.94 33.94 0 0 0-6.901.467c8.401-25.166-20.379-42.671-42.672-37.666 20.676-14.695 14.809-49.734-8.755-58.179-7.169-3.039-17.772-4.712-22.9 2.607-2.557 5.687 5.376 7.407 9.695 8.438 13.815 1.899 23.474 14.638 21.575 28.453a25.25 25.25 0 0 1-5.319 12.361 4.444 4.444 0 0 0 3.112 6.604 68.33 68.33 0 0 0-51.895 40.605 3.66 3.66 0 0 0 6.314 3.691c13.319-21.033 52.333-43.828 74.926-25.603a16.51 16.51 0 0 1 4.566 10.124c.291 4.152-2.031 7.991-1.466 12.036a45.35 45.35 0 0 0-8.449 5.18c-3.518 2.723.307 8.705 4.287 7.365a84.419 84.419 0 0 1 21.22-4.199 111.676 111.676 0 0 1 22.125 3.771 5.993 5.993 0 0 0 4.188-10.112 22.884 22.884 0 0 0-12.927-5.151 59.687 59.687 0 0 1 58.163-8.171 5.124 5.124 0 0 0 3.929-9.322z" fill="#7a0303" opacity="1" data-original="#000000" class=""></path></g></svg>