<svg xmlns="http://www.w3.org/2000/svg" version="1.1" xmlns:xlink="http://www.w3.org/1999/xlink" width="512" height="512" x="0" y="0" viewBox="0 0 476.83 476.83" style="enable-background:new 0 0 512 512" xml:space="preserve" class=""><g><path d="M99.478 441.718a1934.134 1934.134 0 0 0 261.375-2.691c9.053-1.772 52.519 1.285 42.841-15.245 7.094-23.87 6.863-50.355 9.753-75.078 4.893-50.21 8.031-99.766 8.372-150.53 20.335-1.906 47.671 1.806 50.215-25.506 3.143-25.32 3.28-51.026 4.227-76.515 2.663-32.306-2.932-58.794-40.158-62.404a654.792 654.792 0 0 0-73.557-1.341c-23.447 1.377-48.455-2.148-70.902 5.745-21.519 10.106-20.731 38.327-23.231 58.481-81.962 3.866-165.586 8.277-245.645 27.306-4.979 1.26-4.112 9.816 1.246 9.209 80.706-10.845 161.413-23.059 243.062-24.596-1.556 14.295-2.852 28.646-3.18 42.998-50.027 1.199-99.99 4.423-149.792 9.26a625.14 625.14 0 0 0-87.282 10.956c1.228-11.12 2.413-22.244 3.397-33.394.399-4.52-6.953-5.489-7.918-1.071a1022.729 1022.729 0 0 0-19.19 138.609c-1.701 41.428-7.492 85.723 3.112 126.207 13.449 39.638 58.561 37.623 93.255 39.6zm176.176-357.25c4.909-46.744 32.262-43.969 70.942-43.13 22.601-.331 45.206.084 67.803.565 16.547.352 43.292-1.172 50.792 17.662a69.763 69.763 0 0 1 .597 30.763c-1.053 11.646-1.864 23.273-2.517 34.948-.615 11-1.331 21.99-1.557 33.006-.25 12.181.881 25.091-12.914 29.926-32.363 9.783-68.549 4.744-101.679 2.101a48.384 48.384 0 0 0-27.9 3.041c-9.056 5-14.628 14.57-22.915 20.66a69.926 69.926 0 0 1-23.249 11.3 47.058 47.058 0 0 0 5.148-40.9 3.71 3.71 0 0 0-4.393-2.486c-1.309-32.438-4.41-65.321 1.842-97.456zM15.424 285.774c2.017-35.426 6.509-70.563 10.496-105.764 79.123-7.889 158.303-16.254 237.936-17.254a228.98 228.98 0 0 0 1.555 23.959 4.68 4.68 0 0 0 6.484 3.727 41.302 41.302 0 0 1-11.23 37.854c-2.223 2.235-.752 7.133 2.797 6.752a84.486 84.486 0 0 0 52.84-25.746c10.997-10.656 22.495-8.19 36.588-8.076 18.465.155 36.978-.697 55.385-2.106a1301.273 1301.273 0 0 1-12.299 141.761c-3.085 26.277-10.003 53.231-9.792 79.655a1980.76 1980.76 0 0 1-316.373 3.509c-18.761-1.179-39.09-1.818-48.739-20.757-7.998-15.698-7.108-35.223-7.31-52.337-.255-21.729.427-43.484 1.662-65.177z" fill="#7a0303" opacity="1" data-original="#000000" class=""></path><path d="M60.276 151.569c3.415-.66 8.064-1.107 9.96-4.396a4.282 4.282 0 0 0-4.248-5.953 60.435 60.435 0 0 0-15.012 2.185 4.664 4.664 0 0 0-3.357 5.143c1.035 6.304 8.353 3.268 12.657 3.021zM84.657 149.558c5.119.504 31.88-2.23 23.3-11.266-7.718-3.378-16.748.711-24.394 2.896-3.917 2.324-3.71 7.352 1.094 8.37zM133.727 142.913c3.057.517 6.197.164 9.063-1.016a3.495 3.495 0 0 0 0-6.69 45.225 45.225 0 0 0-17.53-.593 4.004 4.004 0 0 0-3.938 3.938c.622 5.927 8.291 3.558 12.405 4.361zM64.23 218.518c30.524 1.251 61.108-.381 91.642-.888a22.416 22.416 0 0 0 13.181-2.109 4.566 4.566 0 0 0 0-7.772 21.813 21.813 0 0 0-13.181-1.46c-30.546 1.311-61.21 1.506-91.642 4.57-3.754.429-7.222.067-9.987 2.83-2.572 4.576 7.139 4.867 9.987 4.829zM55.438 261.105c29.533 5.61 60.674 1.29 90.65 2.364 23.014-.08 46.027-.377 69.041-.2 6.649.95 13.431.213 19.721-2.144a4.908 4.908 0 0 0 0-8.419 39.9 39.9 0 0 0-19.721-1.961c-37.968.679-75.949.256-113.917.908-5.73.416-60.081-2.498-45.774 9.452zM220.953 294.732a1862.46 1862.46 0 0 0-117.386.727c-14.024.529-29.613-.072-42.436 6.2-1.725.844-1.038 3.22.493 3.77 14.063 5.053 30.69 2.591 45.395 2.183 14.957-.415 29.917-.65 44.881-.705 23.022-.081 46.04.262 69.054 1.027a35.055 35.055 0 0 0 19.669-1.885 4.84 4.84 0 0 0 0-8.258 35.07 35.07 0 0 0-19.67-3.059zM228.541 341.812c-53.008 1.343-109.54-.676-162.242 4.43a3.377 3.377 0 0 0 0 6.751c30.972 2.903 62.116 2.292 93.203 2.207l69.039-.189c6.551-.018 11.747.881 16.924-3.587a4.422 4.422 0 0 0 0-6.231c-5.339-4.46-10.151-3.463-16.924-3.381zM308.722 138.96c6.564 7.163 12.911 14.65 19.842 21.459 5.649 5.548 13.886-2.823 8.642-8.642-8.976-10.155-19.626-18.674-28.381-28.993 9.782-14.218 22.765-26.996 30.477-42.584a4.898 4.898 0 0 0-7.656-5.908 249.577 249.577 0 0 0-26.956 33.097 38.95 38.95 0 0 0-7.356 11.362c-2.534 8.827 6.173 14.517 11.388 20.209zM372.854 156.144a457.334 457.334 0 0 0 42.035-86.602 4.05 4.05 0 0 0-7.369-3.107c-7.784 13.751-14.234 28.241-21.937 42.061-7.448 14.016-16.575 27.071-24.616 40.699a6.89 6.89 0 0 0 11.887 6.949zM415.068 89.525a188.956 188.956 0 0 0 21.479 34.219c-11.398 11.421-23.216 22.615-33.426 35.099a7.348 7.348 0 0 0 11.524 8.891c11.728-13.938 22.067-29.168 32.646-44.002a3.194 3.194 0 0 0-.242-4.124 23.464 23.464 0 0 0-4.351-7.473 191.18 191.18 0 0 0-21.361-26.259 3.776 3.776 0 0 0-6.269 3.649z" fill="#7a0303" opacity="1" data-original="#000000" class=""></path></g></svg>